<svg xmlns="http://www.w3.org/2000/svg" width="1200" height="700" viewBox="0 0 1200 700" fill="none">
  <defs>
    <linearGradient id="g1" x1="0" y1="0" x2="1200" y2="700" gradientUnits="userSpaceOnUse">
      <stop offset="0" stop-color="#a855f7" stop-opacity="0.16"/>
      <stop offset="0.45" stop-color="#22d3ee" stop-opacity="0.12"/>
      <stop offset="1" stop-color="#ec4899" stop-opacity="0.14"/>
    </linearGradient>
    <pattern id="grid" width="80" height="80" patternUnits="userSpaceOnUse">
      <path d="M80 0H0V80" stroke="#0f172a" stroke-opacity="0.06" stroke-width="1"/>
    </pattern>
    <filter id="blur" x="-20%" y="-20%" width="140%" height="140%">
      <feGaussianBlur stdDeviation="0.6"/>
    </filter>
  </defs>

  <!-- Base subtle grid -->
  <rect width="1200" height="700" fill="url(#grid)"/>

  <!-- Neon wash -->
  <rect width="1200" height="700" fill="url(#g1)"/>

  <!-- Billboard outline -->
  <g opacity="0.28" filter="url(#blur)" stroke="#0f172a" stroke-opacity="0.28" stroke-width="2.2" stroke-linecap="round" stroke-linejoin="round">
    <path d="M190 170h280a18 18 0 0 1 18 18v118a18 18 0 0 1-18 18H190a18 18 0 0 1-18-18V188a18 18 0 0 1 18-18Z"/>
    <path d="M220 324v62M440 324v62"/>
    <path d="M236 214h188M236 246h140M236 278h164"/>
  </g>

  <!-- DOOH totem -->
  <g opacity="0.24" stroke="#0f172a" stroke-opacity="0.28" stroke-width="2.2" stroke-linecap="round" stroke-linejoin="round">
    <path d="M880 138h140a18 18 0 0 1 18 18v240a18 18 0 0 1-18 18H880a18 18 0 0 1-18-18V156a18 18 0 0 1 18-18Z"/>
    <path d="M912 190h88M912 226h108M912 262h96"/>
    <path d="M920 414v62h60v-62"/>
  </g>

  <!-- Map pin + route -->
  <g opacity="0.22" stroke="#0f172a" stroke-opacity="0.3" stroke-width="2.2" stroke-linecap="round" stroke-linejoin="round">
    <path d="M620 520c28-38 44-64 44-90 0-32-22-54-52-54s-52 22-52 54c0 26 16 52 60 90Z"/>
    <circle cx="612" cy="430" r="18"/>
    <path d="M420 540c72-66 138-84 210-54 80 34 162 14 240-64"/>
    <path d="M450 518l-18 34 38-4"/>
  </g>

  <!-- Mini chart -->
  <g opacity="0.22" stroke="#0f172a" stroke-opacity="0.28" stroke-width="2.2" stroke-linecap="round" stroke-linejoin="round">
    <path d="M120 560h220"/>
    <path d="M150 560V500"/>
    <path d="M190 560V470"/>
    <path d="M230 560V520"/>
    <path d="M270 560V450"/>
    <path d="M310 560V490"/>
  </g>

  <!-- Accent dots -->
  <g opacity="0.22">
    <circle cx="520" cy="160" r="3" fill="#a855f7" fill-opacity="0.35"/>
    <circle cx="560" cy="140" r="2.5" fill="#22d3ee" fill-opacity="0.35"/>
    <circle cx="1040" cy="520" r="3" fill="#ec4899" fill-opacity="0.35"/>
    <circle cx="980" cy="560" r="2.5" fill="#22d3ee" fill-opacity="0.32"/>
  </g>
</svg>
